<svg width="108" height="160" viewBox="0 0 108 160" fill="none" xmlns="http://www.w3.org/2000/svg">
<path d="M54.1431 79.8546C54.1431 73.0602 56.8372 66.5441 61.6328 61.7397C66.4284 56.9354 72.9327 54.2363 79.7147 54.2363C86.4968 54.2363 93.001 56.9354 97.7966 61.7397C102.592 66.5441 105.286 73.0602 105.286 79.8546C105.286 86.6489 102.592 93.165 97.7966 97.9694C93.001 102.774 86.4968 105.473 79.7147 105.473C72.9327 105.473 66.4284 102.774 61.6328 97.9694C56.8372 93.165 54.1431 86.6489 54.1431 79.8546V79.8546Z" stroke="black" stroke-width="5.27758"/>
<path d="M3 131.091C3 124.297 5.69415 117.78 10.4898 112.976C15.2854 108.172 21.7896 105.473 28.5717 105.473H54.1433V131.091C54.1433 137.885 51.4492 144.401 46.6536 149.206C41.8579 154.01 35.3537 156.709 28.5717 156.709C21.7896 156.709 15.2854 154.01 10.4898 149.206C5.69415 144.401 3 137.885 3 131.091Z" stroke="black" stroke-width="5.27758"/>
<path d="M54.1431 3V54.2365H79.7147C86.4968 54.2365 93.001 51.5374 97.7966 46.7331C102.592 41.9287 105.286 35.4126 105.286 28.6182C105.286 21.8239 102.592 15.3078 97.7966 10.5034C93.001 5.69906 86.4968 3 79.7147 3L54.1431 3Z" stroke="black" stroke-width="5.27758"/>
<path d="M3 28.6182C3 35.4126 5.69415 41.9287 10.4898 46.7331C15.2854 51.5374 21.7896 54.2365 28.5717 54.2365H54.1433V3H28.5717C21.7896 3 15.2854 5.69906 10.4898 10.5034C5.69415 15.3078 3 21.8239 3 28.6182Z" stroke="black" stroke-width="5.27758"/>
<path d="M3 79.8546C3 86.6489 5.69415 93.165 10.4898 97.9694C15.2854 102.774 21.7896 105.473 28.5717 105.473H54.1433V54.2363H28.5717C21.7896 54.2363 15.2854 56.9354 10.4898 61.7397C5.69415 66.5441 3 73.0602 3 79.8546Z" stroke="black" stroke-width="5.27758"/>
</svg>
