<svg width="138" height="154" viewBox="0 0 138 154" fill="none" xmlns="http://www.w3.org/2000/svg">
<path d="M91.2743 44.7184V68.1589C93.6461 67.7578 95.9457 67.3969 98.2418 66.978C101.76 66.3318 105.271 65.6321 108.793 64.986C111.805 64.4334 113.344 66.2026 113.096 70.0752C112.074 85.9087 111.013 101.742 109.95 117.571C109.747 120.606 109.106 121.577 106.827 122.393C96.9475 125.931 87.0642 129.456 77.1774 132.95C74.1825 134.011 72.5336 132.317 72.5232 128.258C72.5095 122.758 72.5129 117.264 72.5232 111.765C72.5301 108.641 73.1842 107.495 75.4906 106.662C81.0089 104.674 86.5203 102.674 92.0592 100.789C93.3157 100.361 93.9319 99.6789 93.8424 97.9364C93.7632 96.4034 93.8251 94.8571 93.8251 93.0879C89.6322 94.0193 85.4772 94.9417 81.3187 95.8687C79.7386 96.2207 78.162 96.6262 76.575 96.9248C74.0792 97.3927 72.5301 95.7483 72.5301 92.5175C72.5129 70.0083 72.5129 47.4991 72.5301 24.9944C72.5301 21.8973 73.7832 20.4668 76.427 20.4623C88.3585 20.4445 100.294 20.4534 112.225 20.4534C112.397 20.4534 112.569 20.4489 112.741 20.4623C115.093 20.6673 116.229 22.3919 116.032 25.4847C115.743 30.0747 115.444 34.6603 115.155 39.2504C114.879 43.5775 113.95 44.7095 110.617 44.7139C104.824 44.7228 99.0301 44.7139 93.2331 44.7139H91.2777L91.2743 44.7184ZM78.7919 88.1146C79.4219 88.0388 79.8763 88.0254 80.3238 87.9274C85.6356 86.7465 90.9438 85.5522 96.2521 84.3712C99.0646 83.7429 100.596 85.4006 100.452 89.0504C100.287 93.2795 100.066 97.5042 99.8116 101.724C99.5431 106.158 99.2608 106.524 95.8803 107.727C90.5789 109.617 85.2741 111.502 79.9865 113.462C79.5045 113.641 78.8023 114.345 78.7851 114.839C78.6715 117.785 78.73 120.74 78.73 123.788C79.2429 123.725 79.594 123.743 79.9142 123.632C87.4842 120.949 95.0472 118.235 102.624 115.579C103.547 115.258 103.87 114.701 103.949 113.458C104.566 103.614 105.251 93.7742 105.912 83.9345C106.139 80.561 106.352 77.1875 106.59 73.5868C100.727 74.6519 95.1092 75.6412 89.5014 76.7018C86.3998 77.29 84.9574 75.7615 84.9505 71.6661C84.9402 61.7818 84.9436 51.9021 84.9505 42.0178C84.9505 37.9803 85.966 36.63 89.0505 36.6211C95.0748 36.5989 101.103 36.6211 107.127 36.6078C107.733 36.6078 108.339 36.5409 109.055 36.4964C109.227 33.7958 109.388 31.3091 109.554 28.6843H78.7919V88.1146V88.1146Z" fill="black"/>
<path d="M45.0978 99.5234C45.0978 98.3867 45.0978 97.5085 45.0978 96.6302C45.0978 73.146 45.0978 49.6618 45.0978 26.1776C45.0978 21.6394 45.9948 20.4714 49.489 20.4625C52.9658 20.4536 56.4427 20.4402 59.9195 20.467C62.8296 20.4893 63.9317 21.898 63.9352 25.5846C63.9387 59.7723 63.9387 93.96 63.9352 128.143C63.9352 132.481 62.3011 134.054 59.0086 132.886C48.0809 129.008 37.1567 125.112 26.2325 121.216C23.6458 120.293 23.0582 119.303 23.0512 115.83C23.0373 109.959 23.0269 104.088 23.0512 98.2173C23.0721 94.0313 24.7271 92.4175 27.8771 93.5142C33.0123 95.3018 38.1372 97.1474 43.2655 98.9662C43.8044 99.1579 44.3537 99.305 45.0943 99.5279L45.0978 99.5234ZM51.3839 28.6561C51.3839 29.6503 51.3839 30.5195 51.3839 31.3888C51.3839 55.3902 51.3839 79.3915 51.3839 103.393C51.3839 108.118 49.7672 109.674 46.2069 108.404C41.9721 106.892 37.7408 105.363 33.506 103.861C32.2022 103.397 30.8845 102.987 29.3617 102.479C29.3617 105.876 29.4277 108.912 29.3338 111.939C29.2852 113.486 29.685 114.123 30.8636 114.533C39.3506 117.475 47.8132 120.525 56.2897 123.525C56.6965 123.667 57.1276 123.694 57.5413 123.774V28.6561H51.3874H51.3839Z" fill="black"/>
<path d="M137.097 0C135.814 17.8508 134.52 35.7016 133.249 53.5524C132.193 68.4029 131.175 83.2572 130.122 98.1115C129.285 109.913 128.41 121.71 127.595 133.515C127.523 134.548 127.123 134.933 126.184 135.245C107.482 141.397 88.7919 147.589 70.0864 153.737C69.4338 153.952 68.5889 153.956 67.9401 153.741C49.129 147.593 30.3367 141.397 11.5293 135.245C10.5863 134.936 10.1752 134.552 10.1073 133.519C9.59428 125.717 9.01338 117.915 8.45512 110.116C7.6894 99.4157 6.9199 88.715 6.15795 78.0143C5.41486 67.6114 4.68309 57.2122 3.94377 46.8093C3.17427 36.0069 2.39723 25.2082 1.62774 14.4058C1.28826 9.60385 0.956317 4.80192 0.620605 0C46.1113 0 91.6059 0 137.097 0ZM10.3147 9.07993C10.5901 12.819 10.8655 16.4147 11.1182 20.0105C12.2611 36.2632 13.3927 52.5196 14.5432 68.7685C15.92 88.1722 17.3194 107.572 18.6773 126.976C18.7339 127.801 18.9829 128.216 19.7788 128.476C35.874 133.734 51.9618 139.022 68.0608 144.273C68.6304 144.457 69.3659 144.453 69.9355 144.269C85.9327 139.022 101.919 133.749 117.889 128.431C118.35 128.276 118.912 127.598 118.949 127.127C119.425 121.33 119.809 115.529 120.217 109.728C120.956 99.2272 121.692 88.7225 122.438 78.2216C123.204 67.4192 123.977 56.6205 124.751 45.818C125.411 36.6175 126.078 27.417 126.735 18.2164C126.95 15.1935 127.142 12.1707 127.346 9.0837H10.3147V9.07993Z" fill="black"/>
</svg>
